<?xml version="1.0" standalone="no"?>
<!DOCTYPE svg PUBLIC "-//W3C//DTD SVG 1.1//EN" "http://www.w3.org/Graphics/SVG/1.1/DTD/svg11.dtd">
<svg width="110mm" height="104mm" viewBox="-55 -52 110 104" xmlns="http://www.w3.org/2000/svg" version="1.1">
<title>OpenSCAD Model</title>
<path d="
M -54.7761,15.953 L -54.7647,16.5812 L -54.7307,17.2088 L -54.674,17.8352 L -54.5947,18.4597 L -54.4929,19.0817
 L -54.3687,19.7006 L -54.2222,20.3159 L -54.0535,20.9268 L -53.8629,21.5328 L -53.6504,22.1333 L -53.4164,22.7278
 L -53.161,23.3155 L -52.8845,23.896 L -52.5871,24.4686 L -52.2693,25.0328 L -51.9312,25.5881 L -51.5732,26.1338
 L -51.1956,26.6695 L -50.799,27.1947 L -50.3835,27.7087 L -49.9497,28.2111 L -49.4979,28.7015 L -49.0287,29.1792
 L -48.5424,29.6439 L -48.0396,30.0951 L -47.5207,30.5324 L -46.9863,30.9552 L -46.926,31 L -0.957108,31
 L -0.957108,22 L 7.16898,22 L 7.23005,22.1378 L 7.34039,22.357 L 7.46136,22.5705 L 7.59265,22.7779
 L 7.73396,22.9785 L 7.88495,23.172 L 8.04524,23.3578 L 8.21447,23.5355 L 8.3922,23.7048 L 8.57803,23.8651
 L 8.7715,24.016 L 8.97215,24.1573 L 9.17949,24.2886 L 9.39302,24.4096 L 9.61222,24.5199 L 9.83658,24.6194
 L 10.0655,24.7077 L 10.2986,24.7847 L 10.5351,24.8502 L 10.7745,24.9039 L 11.0163,24.9459 L 11.2599,24.9759
 L 11.5047,24.994 L 11.75,25 L 11.9953,24.994 L 12.2401,24.9759 L 12.4837,24.9459 L 12.7255,24.9039
 L 12.9649,24.8502 L 13.2014,24.7847 L 13.4344,24.7077 L 13.6634,24.6194 L 13.8878,24.5199 L 14.107,24.4096
 L 14.3205,24.2886 L 14.5279,24.1573 L 14.7285,24.016 L 14.922,23.8651 L 15.1078,23.7048 L 15.2855,23.5355
 L 15.4548,23.3578 L 15.6151,23.172 L 15.766,22.9785 L 15.9073,22.7779 L 16.0386,22.5705 L 16.1596,22.357
 L 16.2699,22.1378 L 16.3694,21.9134 L 16.4577,21.6844 L 16.5347,21.4514 L 16.6002,21.2149 L 16.6539,20.9755
 L 16.6959,20.7337 L 16.7259,20.4901 L 16.744,20.2453 L 16.75,20 L 16.744,19.7547 L 16.7259,19.5099
 L 16.6959,19.2663 L 16.6539,19.0245 L 16.6002,18.7851 L 16.5347,18.5486 L 16.4577,18.3156 L 16.3694,18.0866
 L 16.2699,17.8622 L 16.1596,17.643 L 16.0386,17.4295 L 15.9073,17.2221 L 15.766,17.0215 L 15.6151,16.828
 L 15.4548,16.6422 L 15.2855,16.4645 L 15.1078,16.2952 L 14.922,16.1349 L 14.7285,15.984 L 14.5279,15.8427
 L 14.3205,15.7114 L 14.107,15.5904 L 13.8878,15.4801 L 13.6634,15.3806 L 13.4344,15.2923 L 13.2014,15.2153
 L 12.9649,15.1498 L 12.7255,15.0961 L 12.4837,15.0541 L 12.2401,15.0241 L 11.9953,15.006 L 11.75,15
 L 11.5047,15.006 L 11.2599,15.0241 L 11.0163,15.0541 L 10.7745,15.0961 L 10.5351,15.1498 L 10.2986,15.2153
 L 10.0655,15.2923 L 9.83658,15.3806 L 9.61222,15.4801 L 9.39302,15.5904 L 9.17949,15.7114 L 8.97215,15.8427
 L 8.7715,15.984 L 8.57803,16.1349 L 8.3922,16.2952 L 8.21447,16.4645 L 8.04524,16.6422 L 7.88495,16.828
 L 7.73396,17.0215 L 7.59265,17.2221 L 7.46136,17.4295 L 7.34039,17.643 L 7.23005,17.8622 L 7.16898,18
 L -0.957108,18 L -0.957108,9 L -54.7761,9 z
M -54.7761,7 L -0.957108,7 L -0.957108,0.707108 L -52.7842,0.707108 L -52.7842,-15.5303 L -52.7651,-16.326
 L -52.7256,-16.9219 L -52.6645,-17.5164 L -52.5821,-18.1089 L -52.4782,-18.699 L -52.3532,-19.2858 L -52.2069,-19.869
 L -52.0397,-20.4479 L -51.8517,-21.022 L -51.643,-21.5906 L -51.4138,-22.1532 L -51.1645,-22.7093 L -50.8952,-23.2583
 L -50.6062,-23.7997 L -50.2978,-24.333 L -49.9703,-24.8575 L -49.6239,-25.3729 L -49.2592,-25.8785 L -48.8764,-26.3739
 L -48.4758,-26.8586 L -48.0579,-27.3322 L -47.6232,-27.7941 L -47.172,-28.2438 L -46.7047,-28.6811 L -46.2219,-29.1053
 L -45.724,-29.5162 L -45.2115,-29.9133 L -44.6849,-30.2961 L -44.1447,-30.6644 L -43.5915,-31.0178 L -43.0258,-31.3559
 L -42.4482,-31.6783 L -41.8592,-31.9848 L -10.925,-47.5152 L -10.123,-47.8985 L -9.5098,-48.1667 L -8.8872,-48.418
 L -8.25582,-48.6522 L -7.61631,-48.869 L -6.96926,-49.0683 L -6.31535,-49.2498 L -5.65521,-49.4133 L -4.98947,-49.5587
 L -4.31882,-49.6858 L -3.6439,-49.7946 L -2.96539,-49.8849 L -2.28394,-49.9566 L -1.60025,-50.0097 L -0.914985,-50.044
 L -0.228803,-50.0596 L 0.457588,-50.0565 L 1.14354,-50.0347 L 1.82835,-49.994 L 2.51138,-49.9348 L 3.19191,-49.8569
 L 3.8693,-49.7604 L 4.54286,-49.6455 L 5.21196,-49.5122 L 5.87589,-49.3608 L 6.53404,-49.1913 L 7.18573,-49.0038
 L 7.83034,-48.7987 L 8.46721,-48.5761 L 9.09573,-48.3362 L 9.71527,-48.0792 L 10.3252,-47.8055 L 10.925,-47.5152
 L 41.8592,-31.9848 L 42.6421,-31.5726 L 43.2158,-31.2449 L 43.7773,-30.9017 L 44.3263,-30.5433 L 44.8619,-30.1701
 L 45.3839,-29.7825 L 45.8916,-29.3808 L 46.3845,-28.9654 L 46.8622,-28.5367 L 47.3242,-28.0953 L 47.77,-27.6414
 L 48.1991,-27.1756 L 48.6113,-26.6983 L 49.0059,-26.2099 L 49.3828,-25.7111 L 49.7414,-25.2021 L 50.0815,-24.6837
 L 50.4027,-24.1562 L 50.7047,-23.6202 L 50.9872,-23.0762 L 51.2499,-22.5247 L 51.4925,-21.9664 L 51.7148,-21.4017
 L 51.9166,-20.8312 L 52.0978,-20.2555 L 52.258,-19.6751 L 52.3972,-19.0906 L 52.5152,-18.5026 L 52.6119,-17.9117
 L 52.6873,-17.3184 L 52.7411,-16.7234 L 52.7735,-16.1272 L 52.7842,-15.5303 L 52.7842,0.707108 L 0.957107,0.707108
 L 0.957107,7 L 54.7761,7 L 54.7761,-15.953 L 54.7647,-16.5812 L 54.7307,-17.2088 L 54.674,-17.8352
 L 54.5947,-18.4597 L 54.4929,-19.0817 L 54.3687,-19.7006 L 54.2222,-20.3159 L 54.0535,-20.9268 L 53.8629,-21.5328
 L 53.6504,-22.1333 L 53.4164,-22.7278 L 53.161,-23.3155 L 52.8845,-23.896 L 52.5871,-24.4686 L 52.2693,-25.0328
 L 51.9312,-25.5881 L 51.5732,-26.1338 L 51.1956,-26.6695 L 50.799,-27.1947 L 50.3835,-27.7087 L 49.9497,-28.2111
 L 49.4979,-28.7015 L 49.0287,-29.1792 L 48.5424,-29.6439 L 48.0396,-30.0951 L 47.5207,-30.5324 L 46.9863,-30.9552
 L 46.4368,-31.3633 L 45.873,-31.7561 L 45.2952,-32.1333 L 44.704,-32.4946 L 44.1001,-32.8395 L 43.2761,-33.2735
 L 11.5,-49.2265 L 10.8687,-49.5321 L 10.2266,-49.8202 L 9.57447,-50.0907 L 8.91287,-50.3432 L 8.24246,-50.5776
 L 7.56393,-50.7935 L 6.87794,-50.9908 L 6.18516,-51.1692 L 5.48628,-51.3287 L 4.78197,-51.4689 L 4.07296,-51.5899
 L 3.35991,-51.6914 L 2.64356,-51.7735 L 1.9246,-51.8358 L 1.20373,-51.8786 L 0.481681,-51.9016 L -0.24084,-51.9049
 L -0.963135,-51.8884 L -1.68446,-51.8523 L -2.40414,-51.7964 L -3.12146,-51.7209 L -3.83568,-51.6259 L -4.54611,-51.5114
 L -5.25207,-51.3776 L -5.95283,-51.2245 L -6.64772,-51.0524 L -7.33606,-50.8614 L -8.01715,-50.6516 L -8.69033,-50.4234
 L -9.35495,-50.1769 L -10.0103,-49.9124 L -10.6558,-49.6301 L -11.5,-49.2265 L -43.2761,-33.2735 L -43.8961,-32.9508
 L -44.5041,-32.6114 L -45.0996,-32.2555 L -45.6819,-31.8836 L -46.2505,-31.4959 L -46.8048,-31.0929 L -47.3443,-30.6749
 L -47.8684,-30.2424 L -48.3766,-29.7959 L -48.8684,-29.3356 L -49.3434,-28.8621 L -49.8011,-28.3759 L -50.2409,-27.8775
 L -50.6625,-27.3672 L -51.0655,-26.8458 L -51.4495,-26.3135 L -51.814,-25.7711 L -52.1588,-25.2189 L -52.4834,-24.6576
 L -52.7876,-24.0877 L -53.0711,-23.5098 L -53.3336,-22.9244 L -53.5748,-22.3322 L -53.7945,-21.7336 L -53.9924,-21.1294
 L -54.1684,-20.52 L -54.3223,-19.9061 L -54.454,-19.2884 L -54.5633,-18.6673 L -54.6501,-18.0435 L -54.7143,-17.4177
 L -54.7559,-16.7905 L -54.7761,-15.953 z
M -43.7954,33 L -43.2761,33.2735 L -11.5,49.2265 L -10.8687,49.5321 L -10.2266,49.8202 L -9.57447,50.0907
 L -8.91287,50.3432 L -8.24246,50.5776 L -7.56393,50.7935 L -6.87794,50.9908 L -6.18516,51.1692 L -5.48628,51.3287
 L -4.78197,51.4689 L -4.07296,51.5899 L -3.35991,51.6914 L -2.64356,51.7735 L -1.9246,51.8358 L -1.20373,51.8786
 L -0.481681,51.9016 L 0.24084,51.9049 L 0.963135,51.8884 L 1.68446,51.8523 L 2.40414,51.7964 L 3.12146,51.7209
 L 3.83568,51.6259 L 4.54611,51.5114 L 5.25207,51.3776 L 5.95283,51.2245 L 6.64772,51.0524 L 7.33606,50.8614
 L 8.01715,50.6516 L 8.69033,50.4234 L 9.35495,50.1769 L 10.0103,49.9124 L 10.6558,49.6301 L 11.5,49.2265
 L 43.2761,33.2735 L 43.8016,33 L 0.957107,33 L 0.957107,39.2929 L 27.3026,39.2929 L 10.925,47.5152
 L 10.123,47.8985 L 9.5098,48.1667 L 8.8872,48.418 L 8.25582,48.6522 L 7.61631,48.869 L 6.96926,49.0683
 L 6.31535,49.2498 L 5.65521,49.4133 L 4.98947,49.5587 L 4.31882,49.6858 L 3.6439,49.7946 L 2.96539,49.8849
 L 2.28394,49.9566 L 1.60025,50.0097 L 0.914985,50.044 L 0.228803,50.0596 L -0.457588,50.0565 L -1.14354,50.0347
 L -1.82835,49.994 L -2.51138,49.9348 L -3.19191,49.8569 L -3.8693,49.7604 L -4.54286,49.6455 L -5.21196,49.5122
 L -5.87589,49.3608 L -6.53404,49.1913 L -7.18573,49.0038 L -7.83034,48.7987 L -8.46721,48.5761 L -9.09573,48.3362
 L -9.71527,48.0792 L -10.3252,47.8055 L -10.925,47.5152 L -27.3026,39.2929 L -0.957108,39.2929 L -0.957108,33
 z
M -25,-2.32959 L -17.8391,-1.44638 L -11.7877,-1 L 11.7877,-1 L 17.8391,-1.44638 L 25,-2.32959
 L 25,-29.6704 L 17.8391,-30.5536 L 11.7877,-31 L -11.7877,-31 L -17.8391,-30.5536 L -25,-29.6704
 z
M -21,-16 L -20.9928,-16.2944 L -20.9711,-16.5881 L -20.9351,-16.8804 L -20.8847,-17.1705 L -20.8202,-17.4579
 L -20.7416,-17.7417 L -20.6493,-18.0213 L -20.5433,-18.2961 L -20.4239,-18.5653 L -20.2915,-18.8284 L -20.1464,-19.0846
 L -19.9888,-19.3334 L -19.8192,-19.5742 L -19.6381,-19.8064 L -19.4457,-20.0294 L -19.2426,-20.2426 L -19.0294,-20.4457
 L -18.8064,-20.6381 L -18.5742,-20.8192 L -18.3334,-20.9888 L -18.0846,-21.1464 L -17.8284,-21.2915 L -17.5653,-21.4239
 L -17.2961,-21.5433 L -17.0213,-21.6493 L -16.7417,-21.7416 L -16.4579,-21.8202 L -16.1705,-21.8847 L -15.8804,-21.9351
 L -15.5881,-21.9711 L -15.2944,-21.9928 L -15,-22 L -14.7056,-21.9928 L -14.4119,-21.9711 L -14.1196,-21.9351
 L -13.8295,-21.8847 L -13.5421,-21.8202 L -13.2583,-21.7416 L -12.9787,-21.6493 L -12.7039,-21.5433 L -12.4347,-21.4239
 L -12.1716,-21.2915 L -11.9154,-21.1464 L -11.6666,-20.9888 L -11.4258,-20.8192 L -11.1936,-20.6381 L -10.9706,-20.4457
 L -10.7574,-20.2426 L -10.5543,-20.0294 L -10.3619,-19.8064 L -10.1808,-19.5742 L -10.0112,-19.3334 L -9.85363,-19.0846
 L -9.70847,-18.8284 L -9.57607,-18.5653 L -9.45672,-18.2961 L -9.35074,-18.0213 L -9.25836,-17.7417 L -9.17981,-17.4579
 L -9.11529,-17.1705 L -9.06494,-16.8804 L -9.02889,-16.5881 L -9.00723,-16.2944 L -9,-16 L -9.00723,-15.7056
 L -9.02889,-15.4119 L -9.06494,-15.1196 L -9.11529,-14.8295 L -9.17981,-14.5421 L -9.25836,-14.2583 L -9.35074,-13.9787
 L -9.45672,-13.7039 L -9.57607,-13.4347 L -9.70847,-13.1716 L -9.85363,-12.9154 L -10.0112,-12.6666 L -10.1808,-12.4258
 L -10.3619,-12.1936 L -10.5543,-11.9706 L -10.7574,-11.7574 L -10.9706,-11.5543 L -11.1936,-11.3619 L -11.4258,-11.1808
 L -11.6666,-11.0112 L -11.9154,-10.8536 L -12.1716,-10.7085 L -12.4347,-10.5761 L -12.7039,-10.4567 L -12.9787,-10.3507
 L -13.2583,-10.2584 L -13.5421,-10.1798 L -13.8295,-10.1153 L -14.1196,-10.0649 L -14.4119,-10.0289 L -14.7056,-10.0072
 L -15,-10 L -15.2944,-10.0072 L -15.5881,-10.0289 L -15.8804,-10.0649 L -16.1705,-10.1153 L -16.4579,-10.1798
 L -16.7417,-10.2584 L -17.0213,-10.3507 L -17.2961,-10.4567 L -17.5653,-10.5761 L -17.8284,-10.7085 L -18.0846,-10.8536
 L -18.3334,-11.0112 L -18.5742,-11.1808 L -18.8064,-11.3619 L -19.0294,-11.5543 L -19.2426,-11.7574 L -19.4457,-11.9706
 L -19.6381,-12.1936 L -19.8192,-12.4258 L -19.9888,-12.6666 L -20.1464,-12.9154 L -20.2915,-13.1716 L -20.4239,-13.4347
 L -20.5433,-13.7039 L -20.6493,-13.9787 L -20.7416,-14.2583 L -20.8202,-14.5421 L -20.8847,-14.8295 L -20.9351,-15.1196
 L -20.9711,-15.4119 L -20.9928,-15.7056 z
M -6,-21.8 L -5.99976,-21.8098 L -5.99904,-21.8196 L -5.99784,-21.8293 L -5.99616,-21.839 L -5.99401,-21.8486
 L -5.99139,-21.8581 L -5.98831,-21.8674 L -5.98478,-21.8765 L -5.9808,-21.8855 L -5.97639,-21.8943 L -5.97155,-21.9028
 L -5.96629,-21.9111 L -5.96064,-21.9191 L -5.9546,-21.9269 L -5.94819,-21.9343 L -5.94142,-21.9414 L -5.93431,-21.9482
 L -5.92688,-21.9546 L -5.91914,-21.9606 L -5.91111,-21.9663 L -5.90282,-21.9715 L -5.89428,-21.9764 L -5.88551,-21.9808
 L -5.87654,-21.9848 L -5.86738,-21.9883 L -5.85806,-21.9914 L -5.8486,-21.994 L -5.83902,-21.9962 L -5.82935,-21.9978
 L -5.8196,-21.999 L -5.80981,-21.9998 L -5.8,-22 L 5.8,-22 L 5.80981,-21.9998 L 5.8196,-21.999
 L 5.82935,-21.9978 L 5.83902,-21.9962 L 5.8486,-21.994 L 5.85806,-21.9914 L 5.86738,-21.9883 L 5.87654,-21.9848
 L 5.88551,-21.9808 L 5.89428,-21.9764 L 5.90282,-21.9715 L 5.91111,-21.9663 L 5.91914,-21.9606 L 5.92688,-21.9546
 L 5.93431,-21.9482 L 5.94142,-21.9414 L 5.94819,-21.9343 L 5.9546,-21.9269 L 5.96064,-21.9191 L 5.96629,-21.9111
 L 5.97155,-21.9028 L 5.97638,-21.8943 L 5.9808,-21.8855 L 5.98478,-21.8765 L 5.98831,-21.8674 L 5.99139,-21.8581
 L 5.99401,-21.8486 L 5.99616,-21.839 L 5.99784,-21.8293 L 5.99904,-21.8196 L 5.99976,-21.8098 L 6,-21.8
 L 5.99976,-21.7902 L 5.99904,-21.7804 L 5.99784,-21.7707 L 5.99616,-21.761 L 5.99401,-21.7514 L 5.99139,-21.7419
 L 5.98831,-21.7326 L 5.98478,-21.7235 L 5.9808,-21.7145 L 0.180798,-10.1145 L 0.176384,-10.1057 L 0.171545,-10.0972
 L 0.166293,-10.0889 L 0.160641,-10.0809 L 0.154602,-10.0731 L 0.14819,-10.0657 L 0.141421,-10.0586 L 0.134312,-10.0518
 L 0.126878,-10.0454 L 0.11914,-10.0394 L 0.111114,-10.0337 L 0.10282,-10.0285 L 0.0942793,-10.0236 L 0.0855103,-10.0192
 L 0.0765362,-10.0152 L 0.0673771,-10.0117 L 0.0580568,-10.0086 L 0.0485954,-10.006 L 0.0390177,-10.0038 L 0.0293455,-10.0022
 L 0.0196028,-10.001 L 0.00981331,-10.0002 L 0,-10 L -0.00981426,-10.0002 L -0.0196037,-10.001 L -0.0293465,-10.0022
 L -0.0390186,-10.0038 L -0.0485964,-10.006 L -0.0580578,-10.0086 L -0.067378,-10.0117 L -0.0765371,-10.0152 L -0.0855112,-10.0192
 L -0.0942802,-10.0236 L -0.102821,-10.0285 L -0.111115,-10.0337 L -0.119141,-10.0394 L -0.126879,-10.0454 L -0.134313,-10.0518
 L -0.141422,-10.0586 L -0.14819,-10.0657 L -0.154603,-10.0731 L -0.160642,-10.0809 L -0.166294,-10.0889 L -0.171546,-10.0972
 L -0.176385,-10.1057 L -0.180799,-10.1145 L -5.9808,-21.7145 L -5.98478,-21.7235 L -5.98831,-21.7326 L -5.99139,-21.7419
 L -5.99401,-21.7514 L -5.99616,-21.761 L -5.99784,-21.7707 L -5.99904,-21.7804 L -5.99976,-21.7902 z
M 10,-10 L 10,-22 L 22,-22 L 22,-10 z
M -19,-16 L -18.9952,-15.8037 L -18.9807,-15.6079 L -18.9567,-15.4131 L -18.9231,-15.2196 L -18.8801,-15.0281
 L -18.8278,-14.8389 L -18.7662,-14.6524 L -18.6955,-14.4693 L -18.616,-14.2898 L -18.5277,-14.1144 L -18.4309,-13.9436
 L -18.3259,-13.7777 L -18.2128,-13.6172 L -18.092,-13.4624 L -17.9638,-13.3138 L -17.8284,-13.1716 L -17.6862,-13.0362
 L -17.5376,-12.908 L -17.3828,-12.7872 L -17.2223,-12.6741 L -17.0564,-12.5691 L -16.8856,-12.4723 L -16.7102,-12.384
 L -16.5307,-12.3045 L -16.3476,-12.2338 L -16.1611,-12.1722 L -15.9719,-12.1199 L -15.7804,-12.0769 L -15.5869,-12.0433
 L -15.3921,-12.0193 L -15.1963,-12.0048 L -15,-12 L -14.8037,-12.0048 L -14.6079,-12.0193 L -14.4131,-12.0433
 L -14.2196,-12.0769 L -14.0281,-12.1199 L -13.8389,-12.1722 L -13.6524,-12.2338 L -13.4693,-12.3045 L -13.2898,-12.384
 L -13.1144,-12.4723 L -12.9436,-12.5691 L -12.7777,-12.6741 L -12.6172,-12.7872 L -12.4624,-12.908 L -12.3138,-13.0362
 L -12.1716,-13.1716 L -12.0362,-13.3138 L -11.908,-13.4624 L -11.7872,-13.6172 L -11.6741,-13.7777 L -11.5691,-13.9436
 L -11.4723,-14.1144 L -11.384,-14.2898 L -11.3045,-14.4693 L -11.2338,-14.6524 L -11.1722,-14.8389 L -11.1199,-15.0281
 L -11.0769,-15.2196 L -11.0433,-15.4131 L -11.0193,-15.6079 L -11.0048,-15.8037 L -11,-16 L -11.0048,-16.1963
 L -11.0193,-16.3921 L -11.0433,-16.5869 L -11.0769,-16.7804 L -11.1199,-16.9719 L -11.1722,-17.1611 L -11.2338,-17.3476
 L -11.3045,-17.5307 L -11.384,-17.7102 L -11.4723,-17.8856 L -11.5691,-18.0564 L -11.6741,-18.2223 L -11.7872,-18.3828
 L -11.908,-18.5376 L -12.0362,-18.6862 L -12.1716,-18.8284 L -12.3138,-18.9638 L -12.4624,-19.092 L -12.6172,-19.2128
 L -12.7777,-19.3259 L -12.9436,-19.4309 L -13.1144,-19.5277 L -13.2898,-19.616 L -13.4693,-19.6955 L -13.6524,-19.7662
 L -13.8389,-19.8278 L -14.0281,-19.8801 L -14.2196,-19.9231 L -14.4131,-19.9567 L -14.6079,-19.9807 L -14.8037,-19.9952
 L -15,-20 L -15.1963,-19.9952 L -15.3921,-19.9807 L -15.5869,-19.9567 L -15.7804,-19.9231 L -15.9719,-19.8801
 L -16.1611,-19.8278 L -16.3476,-19.7662 L -16.5307,-19.6955 L -16.7102,-19.616 L -16.8856,-19.5277 L -17.0564,-19.4309
 L -17.2223,-19.3259 L -17.3828,-19.2128 L -17.5376,-19.092 L -17.6862,-18.9638 L -17.8284,-18.8284 L -17.9638,-18.6862
 L -18.092,-18.5376 L -18.2128,-18.3828 L -18.3259,-18.2223 L -18.4309,-18.0564 L -18.5277,-17.8856 L -18.616,-17.7102
 L -18.6955,-17.5307 L -18.7662,-17.3476 L -18.8278,-17.1611 L -18.8801,-16.9719 L -18.9231,-16.7804 L -18.9567,-16.5869
 L -18.9807,-16.3921 L -18.9952,-16.1963 z
M -2.76393,-19.8 L -2.76369,-19.7902 L -2.76297,-19.7804 L -2.76177,-19.7707 L -2.76009,-19.761 L -2.75794,-19.7514
 L -2.75532,-19.7419 L -2.75224,-19.7326 L -2.74871,-19.7235 L -2.74473,-19.7145 L -0.180799,-14.5866 L -0.176385,-14.5779
 L -0.171546,-14.5693 L -0.166294,-14.561 L -0.160642,-14.553 L -0.154603,-14.5453 L -0.14819,-14.5378 L -0.141422,-14.5307
 L -0.134313,-14.5239 L -0.126879,-14.5175 L -0.119141,-14.5115 L -0.111115,-14.5058 L -0.102821,-14.5006 L -0.0942802,-14.4958
 L -0.0855112,-14.4913 L -0.0765371,-14.4874 L -0.067378,-14.4838 L -0.0580578,-14.4807 L -0.0485964,-14.4781 L -0.0390186,-14.476
 L -0.0293465,-14.4743 L -0.0196037,-14.4731 L -0.00981426,-14.4724 L 0,-14.4721 L 0.00981331,-14.4724 L 0.0196028,-14.4731
 L 0.0293455,-14.4743 L 0.0390177,-14.476 L 0.0485954,-14.4781 L 0.0580568,-14.4807 L 0.0673771,-14.4838 L 0.0765362,-14.4874
 L 0.0855103,-14.4913 L 0.0942793,-14.4958 L 0.10282,-14.5006 L 0.111114,-14.5058 L 0.11914,-14.5115 L 0.126878,-14.5175
 L 0.134312,-14.5239 L 0.141421,-14.5307 L 0.14819,-14.5378 L 0.154602,-14.5453 L 0.160641,-14.553 L 0.166293,-14.561
 L 0.171545,-14.5693 L 0.176384,-14.5779 L 0.180798,-14.5866 L 2.74473,-19.7145 L 2.74871,-19.7235 L 2.75224,-19.7326
 L 2.75532,-19.7419 L 2.75794,-19.7514 L 2.76009,-19.761 L 2.76177,-19.7707 L 2.76297,-19.7804 L 2.76369,-19.7902
 L 2.76393,-19.8 L 2.76369,-19.8098 L 2.76297,-19.8196 L 2.76177,-19.8293 L 2.76009,-19.839 L 2.75794,-19.8486
 L 2.75532,-19.8581 L 2.75224,-19.8674 L 2.74871,-19.8765 L 2.74473,-19.8855 L 2.74032,-19.8943 L 2.73548,-19.9028
 L 2.73023,-19.9111 L 2.72457,-19.9191 L 2.71853,-19.9269 L 2.71212,-19.9343 L 2.70535,-19.9414 L 2.69824,-19.9482
 L 2.69081,-19.9546 L 2.68307,-19.9606 L 2.67505,-19.9663 L 2.66675,-19.9715 L 2.65821,-19.9764 L 2.64944,-19.9808
 L 2.64047,-19.9848 L 2.63131,-19.9883 L 2.62199,-19.9914 L 2.61253,-19.994 L 2.60295,-19.9962 L 2.59328,-19.9978
 L 2.58354,-19.999 L 2.57374,-19.9998 L 2.56393,-20 L -2.56393,-20 L -2.57375,-19.9998 L -2.58354,-19.999
 L -2.59328,-19.9978 L -2.60295,-19.9962 L -2.61253,-19.994 L -2.62199,-19.9914 L -2.63131,-19.9883 L -2.64047,-19.9848
 L -2.64944,-19.9808 L -2.65821,-19.9764 L -2.66675,-19.9715 L -2.67505,-19.9663 L -2.68307,-19.9606 L -2.69081,-19.9546
 L -2.69824,-19.9482 L -2.70535,-19.9414 L -2.71212,-19.9343 L -2.71853,-19.9269 L -2.72457,-19.9191 L -2.73023,-19.9111
 L -2.73548,-19.9028 L -2.74032,-19.8943 L -2.74473,-19.8855 L -2.74871,-19.8765 L -2.75224,-19.8674 L -2.75532,-19.8581
 L -2.75794,-19.8486 L -2.76009,-19.839 L -2.76177,-19.8293 L -2.76297,-19.8196 L -2.76369,-19.8098 z
M 0.957107,31 L 46.9247,31 L 47.3443,30.6749 L 47.8684,30.2424 L 48.3766,29.7959 L 48.8684,29.3356
 L 49.3434,28.8621 L 49.8011,28.3759 L 50.2409,27.8775 L 50.6625,27.3672 L 51.0655,26.8458 L 51.4495,26.3135
 L 51.814,25.7711 L 52.1588,25.2189 L 52.4834,24.6576 L 52.7876,24.0877 L 53.0711,23.5098 L 53.3336,22.9244
 L 53.5748,22.3322 L 53.7945,21.7336 L 53.9924,21.1294 L 54.1684,20.52 L 54.3223,19.9061 L 54.454,19.2884
 L 54.5633,18.6673 L 54.6501,18.0435 L 54.7143,17.4177 L 54.7559,16.7905 L 54.7761,15.953 L 54.7761,9
 L 0.957107,9 L 0.957107,15.5429 L 7.01381,15.5429 L 7.15357,15.3809 L 7.34159,15.1834 L 7.38636,15.1364
 L 7.43338,15.0916 L 7.63087,14.9036 L 7.83734,14.7255 L 7.8865,14.6831 L 8.10146,14.5153 L 8.15265,14.4754
 L 8.20573,14.438 L 8.42866,14.281 L 8.65903,14.1351 L 8.71389,14.1004 L 8.77038,14.0684 L 9.00763,13.9339
 L 9.25119,13.8114 L 9.30918,13.7822 L 9.36854,13.7558 L 9.61782,13.6454 L 9.87222,13.5472 L 9.9328,13.5239
 L 10.1917,13.4383 L 10.2534,13.418 L 10.3159,13.4006 L 10.5787,13.3279 L 10.8448,13.2682 L 10.9081,13.2539
 L 10.9721,13.2428 L 11.2408,13.1962 L 11.5114,13.1628 L 11.5758,13.1549 L 11.6406,13.1501 L 11.9125,13.1301
 L 11.9774,13.1285 L 12.25,13.1218 L 12.5226,13.1285 L 12.5875,13.1301 L 12.8594,13.1501 L 12.9242,13.1549
 L 12.9886,13.1628 L 13.2592,13.1962 L 13.5279,13.2428 L 13.5919,13.2539 L 13.6552,13.2682 L 13.9213,13.3279
 L 14.1841,13.4006 L 14.2466,13.418 L 14.3083,13.4383 L 14.5672,13.5239 L 14.6278,13.5472 L 14.8822,13.6454
 L 15.1315,13.7558 L 15.1908,13.7822 L 15.2488,13.8114 L 15.4924,13.9339 L 15.7296,14.0684 L 15.7861,14.1004
 L 15.841,14.1351 L 16.0713,14.281 L 16.2943,14.438 L 16.3474,14.4754 L 16.3985,14.5153 L 16.6135,14.6831
 L 16.6627,14.7255 L 16.8691,14.9036 L 17.0666,15.0916 L 17.1136,15.1364 L 17.1584,15.1834 L 17.3464,15.3809
 L 17.5245,15.5873 L 17.5669,15.6365 L 17.7347,15.8515 L 17.7746,15.9026 L 17.812,15.9557 L 17.969,16.1787
 L 18.1149,16.409 L 18.1496,16.4639 L 18.1816,16.5204 L 18.3161,16.7576 L 18.4386,17.0012 L 18.4678,17.0592
 L 18.4942,17.1185 L 18.6046,17.3678 L 18.7028,17.6222 L 18.7261,17.6828 L 18.8117,17.9417 L 18.832,18.0034
 L 18.8494,18.0659 L 18.9221,18.3287 L 18.9818,18.5948 L 18.9961,18.6581 L 19.0072,18.7221 L 19.0538,18.9908
 L 19.0872,19.2614 L 19.0951,19.3258 L 19.0999,19.3906 L 19.1199,19.6625 L 19.1215,19.7274 L 19.1282,20
 L 19.1215,20.2726 L 19.1199,20.3375 L 19.0999,20.6094 L 19.0951,20.6742 L 19.0872,20.7386 L 19.0538,21.0092
 L 19.0072,21.2779 L 18.9961,21.3419 L 18.9818,21.4052 L 18.9221,21.6713 L 18.8494,21.9341 L 18.832,21.9966
 L 18.8117,22.0583 L 18.7261,22.3172 L 18.7028,22.3778 L 18.6046,22.6322 L 18.4942,22.8815 L 18.4678,22.9408
 L 18.4386,22.9988 L 18.3161,23.2424 L 18.1816,23.4796 L 18.1496,23.5361 L 18.1149,23.591 L 17.969,23.8213
 L 17.812,24.0443 L 17.7746,24.0974 L 17.7347,24.1485 L 17.5669,24.3635 L 17.5245,24.4127 L 17.3464,24.6191
 L 17.1584,24.8166 L 17.1136,24.8636 L 17.0666,24.9084 L 16.8691,25.0964 L 16.6627,25.2745 L 16.6135,25.3169
 L 16.3985,25.4847 L 16.3474,25.5246 L 16.2943,25.562 L 16.0713,25.719 L 15.841,25.8649 L 15.7861,25.8996
 L 15.7296,25.9316 L 15.4924,26.0661 L 15.2488,26.1886 L 15.1908,26.2178 L 15.1315,26.2442 L 14.8822,26.3546
 L 14.6278,26.4528 L 14.5672,26.4761 L 14.3083,26.5617 L 14.2466,26.582 L 14.1841,26.5994 L 13.9213,26.6721
 L 13.6552,26.7318 L 13.5919,26.7461 L 13.5279,26.7572 L 13.2592,26.8038 L 12.9886,26.8372 L 12.9242,26.8451
 L 12.8594,26.8499 L 12.5875,26.8699 L 12.5226,26.8715 L 12.25,26.8782 L 11.9774,26.8715 L 11.9125,26.8699
 L 11.6406,26.8499 L 11.5758,26.8451 L 11.5114,26.8372 L 11.2408,26.8038 L 10.9721,26.7572 L 10.9081,26.7461
 L 10.8448,26.7318 L 10.5787,26.6721 L 10.3159,26.5994 L 10.2534,26.582 L 10.1917,26.5617 L 9.9328,26.4761
 L 9.87222,26.4528 L 9.61782,26.3546 L 9.36854,26.2442 L 9.30918,26.2178 L 9.25119,26.1886 L 9.00763,26.0661
 L 8.77038,25.9316 L 8.71389,25.8996 L 8.65903,25.8649 L 8.42866,25.719 L 8.20573,25.562 L 8.15265,25.5246
 L 8.10146,25.4847 L 7.8865,25.3169 L 7.83734,25.2745 L 7.63087,25.0964 L 7.43338,24.9084 L 7.38636,24.8636
 L 7.34159,24.8166 L 7.15357,24.6191 L 7.01381,24.4571 L 0.957107,24.4571 z
M 12,-12 L 20,-12 L 20,-20 L 12,-20 z
" stroke="black" fill="black" stroke-width="0.5"/>
</svg>
